<svg data-v-423bf9ae="" xmlns="http://www.w3.org/2000/svg" viewBox="0 0 55.77777658077917 60" class="font"><!----><!----><defs data-v-423bf9ae=""><linearGradient data-v-423bf9ae="" gradientTransform="rotate(25)" id="03b54d97-068b-4460-a4f4-1f5f9e07dfa0" x1="0%" y1="0%" x2="100%" y2="0%"><stop data-v-423bf9ae="" offset="0%" style="stop-color: rgb(0, 118, 221); stop-opacity: 1;"></stop><stop data-v-423bf9ae="" offset="100%" style="stop-color: rgb(230, 0, 233); stop-opacity: 1;"></stop></linearGradient></defs><g data-v-423bf9ae="" id="51eb9402-9133-4927-9da7-17c8a8b54d59" fill="url(#03b54d97-068b-4460-a4f4-1f5f9e07dfa0)" transform="matrix(5.555555457440915,0,0,5.555555457440915,-2.7222214431919767,-22.166665612915416)"><path d="M0.49 9.51L0.49 9.51Q0.49 8.98 0.56 8.47Q0.64 7.95 0.81 7.40Q0.99 6.84 1.25 6.35Q1.52 5.87 1.93 5.42Q2.34 4.98 2.86 4.67Q3.38 4.35 4.10 4.17Q4.81 3.99 5.65 3.99L5.65 3.99Q6.36 3.99 7.04 4.16Q7.71 4.33 8.31 4.67Q8.90 5.02 9.33 5.60Q9.76 6.17 9.93 6.92L9.93 6.92L9.93 7.01Q9.93 7.22 9.69 7.28L9.69 7.28L7.90 7.91Q7.79 7.94 7.72 7.94L7.72 7.94Q7.64 7.94 7.59 7.91Q7.55 7.87 7.56 7.80L7.56 7.80L7.59 7.59L7.59 7.33Q7.59 7.01 7.54 6.71Q7.48 6.41 7.33 6.11Q7.18 5.81 6.95 5.59Q6.73 5.37 6.36 5.23Q6.00 5.09 5.54 5.09L5.54 5.09Q4.96 5.09 4.50 5.33Q4.03 5.58 3.74 5.97Q3.45 6.36 3.24 6.88Q3.04 7.39 2.96 7.89Q2.88 8.39 2.88 8.89L2.88 8.89Q2.88 9.73 3.07 10.53Q3.25 11.32 3.61 11.99Q3.96 12.65 4.56 13.06Q5.16 13.47 5.91 13.47L5.91 13.47Q6.20 13.47 6.46 13.42Q6.73 13.38 6.97 13.29Q7.21 13.19 7.36 13.02Q7.50 12.84 7.50 12.61L7.50 12.61L7.50 11.89Q7.50 11.51 7.44 11.23Q7.39 10.96 7.28 10.79Q7.18 10.62 7.05 10.52Q6.92 10.41 6.75 10.37Q6.58 10.32 6.42 10.30Q6.26 10.28 6.06 10.27L6.06 10.27Q6.03 10.27 6.01 10.27L6.01 10.27L5.91 10.27Q5.70 10.27 5.70 10.07L5.70 10.07L5.70 9.65Q5.70 9.43 5.91 9.43L5.91 9.43L10.32 9.44Q10.53 9.44 10.53 9.65L10.53 9.65L10.53 10.07Q10.53 10.28 10.32 10.28L10.32 10.28L10.21 10.28Q10.01 10.28 9.92 10.39Q9.84 10.49 9.84 10.73L9.84 10.73L9.84 12.25Q9.69 12.64 9.36 13.07L9.36 13.07Q8.00 14.79 5.55 14.79L5.55 14.79Q4.05 14.79 2.90 14.10Q1.74 13.41 1.11 12.21Q0.49 11.01 0.49 9.51Z"></path></g><!----><!----></svg>