<svg data-v-423bf9ae="" xmlns="http://www.w3.org/2000/svg" viewBox="0 0 388.0738222648277 60" class="font"><!----><!----><defs data-v-423bf9ae=""><linearGradient data-v-423bf9ae="" gradientTransform="rotate(25)" id="dba02ec4-bfff-4a2c-b15f-b431fee33e50" x1="0%" y1="0%" x2="100%" y2="0%"><stop data-v-423bf9ae="" offset="0%" style="stop-color: rgb(0, 118, 221); stop-opacity: 1;"></stop><stop data-v-423bf9ae="" offset="100%" style="stop-color: rgb(230, 0, 233); stop-opacity: 1;"></stop></linearGradient></defs><g data-v-423bf9ae="" id="cb0744b2-bf2d-44cf-8805-4c5ea81d766f" fill="url(#dba02ec4-bfff-4a2c-b15f-b431fee33e50)" transform="matrix(5.277044022756997,0,0,5.277044022756997,-2.585745782683915,-18.153030786564635)"><path d="M0.49 9.51L0.49 9.51Q0.49 8.98 0.56 8.47Q0.64 7.95 0.81 7.40Q0.99 6.84 1.25 6.35Q1.52 5.87 1.93 5.42Q2.34 4.98 2.86 4.67Q3.38 4.35 4.10 4.17Q4.81 3.99 5.65 3.99L5.65 3.99Q6.36 3.99 7.04 4.16Q7.71 4.33 8.31 4.67Q8.90 5.02 9.33 5.60Q9.76 6.17 9.93 6.92L9.93 6.92L9.93 7.01Q9.93 7.22 9.69 7.28L9.69 7.28L7.90 7.91Q7.79 7.94 7.72 7.94L7.72 7.94Q7.64 7.94 7.59 7.91Q7.55 7.87 7.56 7.80L7.56 7.80L7.59 7.59L7.59 7.33Q7.59 7.01 7.54 6.71Q7.48 6.41 7.33 6.11Q7.18 5.81 6.95 5.59Q6.73 5.37 6.36 5.23Q6.00 5.09 5.54 5.09L5.54 5.09Q4.96 5.09 4.50 5.33Q4.03 5.58 3.74 5.97Q3.45 6.36 3.24 6.88Q3.04 7.39 2.96 7.89Q2.88 8.39 2.88 8.89L2.88 8.89Q2.88 9.73 3.07 10.53Q3.25 11.32 3.61 11.99Q3.96 12.65 4.56 13.06Q5.16 13.47 5.91 13.47L5.91 13.47Q6.20 13.47 6.46 13.42Q6.73 13.38 6.97 13.29Q7.21 13.19 7.36 13.02Q7.50 12.84 7.50 12.61L7.50 12.61L7.50 11.89Q7.50 11.51 7.44 11.23Q7.39 10.96 7.28 10.79Q7.18 10.62 7.05 10.52Q6.92 10.41 6.75 10.37Q6.58 10.32 6.42 10.30Q6.26 10.28 6.06 10.27L6.06 10.27Q6.03 10.27 6.01 10.27L6.01 10.27L5.91 10.27Q5.70 10.27 5.70 10.07L5.70 10.07L5.70 9.65Q5.70 9.43 5.91 9.43L5.91 9.43L10.32 9.44Q10.53 9.44 10.53 9.65L10.53 9.65L10.53 10.07Q10.53 10.28 10.32 10.28L10.32 10.28L10.21 10.28Q10.01 10.28 9.92 10.39Q9.84 10.49 9.84 10.73L9.84 10.73L9.84 12.25Q9.69 12.64 9.36 13.07L9.36 13.07Q8.00 14.79 5.55 14.79L5.55 14.79Q4.05 14.79 2.90 14.10Q1.74 13.41 1.11 12.21Q0.49 11.01 0.49 9.51ZM11.22 11.08L11.22 11.08Q11.22 10.33 11.42 9.71Q11.61 9.10 11.93 8.69Q12.24 8.29 12.68 8.01Q13.11 7.73 13.58 7.61Q14.05 7.49 14.56 7.49L14.56 7.49Q15.09 7.49 15.57 7.67Q16.04 7.85 16.38 8.13Q16.71 8.42 16.96 8.78Q17.20 9.14 17.32 9.50Q17.44 9.86 17.44 10.19L17.44 10.19Q17.44 10.31 17.32 10.36L17.32 10.36L13.26 12.14Q13.53 12.79 14.06 13.22Q14.60 13.64 15.36 13.64L15.36 13.64Q15.83 13.64 16.31 13.38Q16.79 13.13 17.14 12.61L17.14 12.61Q17.19 12.55 17.26 12.55L17.26 12.55Q17.36 12.55 17.82 12.82L17.82 12.82Q17.88 12.86 17.88 12.93L17.88 12.93Q17.88 13.02 17.79 13.18L17.79 13.18Q16.91 14.81 14.98 14.81L14.98 14.81Q13.86 14.81 12.99 14.30Q12.12 13.79 11.67 12.94Q11.22 12.10 11.22 11.08ZM13.31 9.05Q12.96 9.50 12.96 10.20Q12.96 10.90 13.09 11.27L13.09 11.27L15.34 10.13Q15.34 9.47 15.02 9.03Q14.70 8.59 14.22 8.59L14.22 8.59Q13.65 8.59 13.31 9.05ZM18.16 14.43L18.16 14.43L18.16 14.01Q18.16 13.80 18.36 13.80L18.36 13.80L18.40 13.80Q18.89 13.80 19.15 13.43Q19.41 13.06 19.41 12.47L19.41 12.47L19.41 10.71Q19.41 10.37 19.39 10.14Q19.37 9.92 19.29 9.67Q19.22 9.41 19.04 9.27Q18.86 9.13 18.59 9.10L18.59 9.10Q18.41 9.08 18.42 8.92L18.42 8.92L18.42 8.44Q18.42 8.29 18.62 8.26L18.62 8.26Q19.52 8.11 20.28 7.81Q21.03 7.50 21.40 7.24L21.40 7.24Q21.44 7.21 21.46 7.21L21.46 7.21L21.49 7.21Q21.51 7.21 21.51 7.23L21.51 7.23L21.26 9.06Q22.26 7.46 23.68 7.46L23.68 7.46Q24.26 7.46 24.69 7.62Q25.13 7.77 25.39 8.02Q25.64 8.27 25.80 8.64Q25.95 9.00 26.00 9.37Q26.06 9.73 26.06 10.17L26.06 10.17L26.06 12.47Q26.06 13.06 26.33 13.43Q26.59 13.80 27.09 13.80L27.09 13.80L27.15 13.80Q27.36 13.80 27.36 14.01L27.36 14.01L27.36 14.43Q27.36 14.64 27.15 14.64L27.15 14.64L23.35 14.64Q23.14 14.64 23.14 14.43L23.14 14.43L23.14 14.01Q23.14 13.80 23.36 13.80L23.36 13.80Q23.74 13.81 23.93 13.44L23.93 13.44Q24.10 13.10 24.10 12.55L24.10 12.55Q24.10 12.51 24.10 12.47L24.10 12.47L24.10 10.36Q24.10 10.32 24.10 10.25L24.10 10.25Q24.10 10.04 24.10 9.92Q24.10 9.81 24.08 9.62Q24.06 9.43 24.02 9.32Q23.99 9.21 23.91 9.08Q23.84 8.94 23.73 8.87Q23.63 8.80 23.46 8.75Q23.30 8.70 23.08 8.70L23.08 8.70Q22.58 8.70 22.07 9.06Q21.57 9.43 21.38 9.89L21.38 9.89L21.38 12.47Q21.38 13.06 21.65 13.43Q21.92 13.80 22.41 13.80L22.41 13.80L22.44 13.80Q22.65 13.80 22.65 14.01L22.65 14.01L22.65 14.43Q22.65 14.64 22.44 14.64L22.44 14.64L18.36 14.64Q18.16 14.64 18.16 14.43ZM27.92 14.43L27.92 14.43L27.92 14.01Q27.92 13.80 28.13 13.80L28.13 13.80Q28.63 13.80 28.90 13.43L28.90 13.43Q29.14 13.08 29.14 12.53L29.14 12.53Q29.14 12.50 29.14 12.47L29.14 12.47L29.14 10.08Q29.14 9.86 29.14 9.74Q29.13 9.63 29.12 9.43Q29.10 9.24 29.06 9.13Q29.03 9.02 28.95 8.88Q28.88 8.74 28.78 8.66Q28.67 8.59 28.51 8.54Q28.34 8.48 28.13 8.48Q27.92 8.48 27.92 8.27L27.92 8.27L27.92 7.85Q27.92 7.64 28.13 7.64L28.13 7.64L29.17 7.64L29.16 7.53Q29.16 6.99 29.25 6.46Q29.34 5.93 29.57 5.37Q29.80 4.82 30.15 4.40Q30.50 3.98 31.06 3.71Q31.62 3.44 32.33 3.44L32.33 3.44Q33.40 3.44 33.97 3.85Q34.54 4.27 34.54 4.93L34.54 4.93Q34.54 5.25 34.38 5.63L34.38 5.63Q34.30 5.83 34.04 5.89L34.04 5.89L32.57 6.22L32.53 6.23Q32.45 6.23 32.43 6.13Q32.42 6.04 32.47 5.94L32.47 5.94Q32.73 5.44 32.73 5.02L32.73 5.02Q32.73 4.64 32.54 4.42Q32.34 4.20 32.07 4.20L32.07 4.20Q31.73 4.20 31.48 4.52L31.48 4.52Q31.24 4.82 31.14 5.35Q31.04 5.88 31.04 6.73L31.04 6.73L31.04 7.64L32.91 7.64Q33.12 7.64 33.12 7.85L33.12 7.85L33.12 8.46Q33.12 8.67 32.91 8.67L32.91 8.67L31.04 8.67L31.04 12.47Q31.04 13.06 31.31 13.43Q31.58 13.80 32.07 13.80L32.07 13.80Q32.28 13.80 32.28 14.01L32.28 14.01L32.28 14.43Q32.28 14.64 32.07 14.64L32.07 14.64L28.13 14.64Q27.92 14.64 27.92 14.43ZM33.27 11.07L33.27 11.07Q33.27 10.01 33.83 9.11Q34.39 8.20 35.36 7.77L35.36 7.77Q36.03 7.47 36.78 7.47L36.78 7.47Q37.84 7.47 38.76 8.07Q39.68 8.66 40.13 9.69L40.13 9.69Q40.46 10.41 40.46 11.22L40.46 11.22Q40.46 12.28 39.90 13.17Q39.34 14.07 38.36 14.51L38.36 14.51Q37.67 14.81 36.94 14.81L36.94 14.81Q35.88 14.81 34.96 14.22Q34.04 13.62 33.59 12.60L33.59 12.60Q33.27 11.87 33.27 11.07ZM34.94 10.19L34.94 10.19Q34.94 10.96 35.33 11.83L35.33 11.83Q35.69 12.63 36.23 13.16Q36.77 13.69 37.38 13.69L37.38 13.69Q37.65 13.69 37.94 13.57L37.94 13.57Q38.79 13.20 38.79 12.09L38.79 12.09Q38.79 11.33 38.40 10.46L38.40 10.46Q38.04 9.65 37.49 9.12Q36.95 8.59 36.34 8.59L36.34 8.59Q36.07 8.59 35.78 8.72L35.78 8.72Q34.94 9.08 34.94 10.19ZM40.95 14.43L40.95 14.43L40.95 14.01Q40.95 13.80 41.16 13.80L41.16 13.80L41.19 13.80Q41.69 13.80 41.95 13.43Q42.21 13.06 42.21 12.47L42.21 12.47L42.21 10.71Q42.21 10.37 42.19 10.14Q42.16 9.92 42.09 9.67Q42.01 9.41 41.84 9.27Q41.66 9.13 41.38 9.10L41.38 9.10Q41.21 9.08 41.22 8.92L41.22 8.92L41.22 8.44Q41.22 8.29 41.42 8.26L41.42 8.26Q42.31 8.11 43.07 7.81Q43.83 7.50 44.19 7.24L44.19 7.24Q44.24 7.21 44.26 7.21L44.26 7.21L44.29 7.21Q44.30 7.21 44.30 7.23L44.30 7.23L43.98 9.11Q44.35 8.32 45.01 7.89Q45.67 7.46 46.44 7.46L46.44 7.46Q47.13 7.46 47.57 7.84Q48.02 8.22 48.02 8.91L48.02 8.91Q48.02 9.28 47.95 9.49Q47.89 9.70 47.65 9.80L47.65 9.80L46.34 10.34Q46.28 10.36 46.22 10.36L46.22 10.36Q46.09 10.36 46.09 10.23L46.09 10.23Q46.09 10.16 46.12 10.10L46.12 10.10Q46.25 9.79 46.25 9.41L46.25 9.41Q46.25 9.04 46.06 8.86Q45.88 8.68 45.58 8.68L45.58 8.68Q45.14 8.68 44.75 9.06Q44.37 9.44 44.18 9.89L44.18 9.89L44.18 12.47Q44.18 13.06 44.45 13.43Q44.71 13.80 45.21 13.80L45.21 13.80L45.23 13.80Q45.45 13.80 45.45 14.01L45.45 14.01L45.45 14.43Q45.45 14.64 45.23 14.64L45.23 14.64L41.16 14.64Q40.95 14.64 40.95 14.43ZM48.33 14.43L48.33 14.43L48.33 14.01Q48.33 13.80 48.54 13.80L48.54 13.80L48.57 13.80Q49.06 13.80 49.32 13.43Q49.58 13.06 49.58 12.47L49.58 12.47L49.58 10.71Q49.58 10.37 49.56 10.14Q49.53 9.92 49.46 9.67Q49.38 9.41 49.21 9.27Q49.03 9.13 48.75 9.10L48.75 9.10Q48.58 9.08 48.59 8.92L48.59 8.92L48.59 8.44Q48.59 8.29 48.79 8.26L48.79 8.26Q49.69 8.11 50.45 7.81Q51.20 7.51 51.56 7.24L51.56 7.24Q51.62 7.21 51.63 7.21L51.63 7.21L51.66 7.21Q51.67 7.21 51.67 7.23L51.67 7.23L51.43 9.06Q52.43 7.46 53.85 7.46L53.85 7.46Q55.65 7.46 56.08 8.83L56.08 8.83Q57.13 7.46 58.65 7.46L58.65 7.46Q59.23 7.46 59.66 7.62Q60.09 7.77 60.35 8.02Q60.61 8.27 60.76 8.64Q60.92 9.00 60.97 9.37Q61.02 9.73 61.02 10.17L61.02 10.17L61.02 12.47Q61.02 13.06 61.29 13.43Q61.56 13.80 62.06 13.80L62.06 13.80L62.19 13.80Q62.41 13.80 62.41 14.01L62.41 14.01L62.41 14.43Q62.41 14.64 62.19 14.64L62.19 14.64L58.26 14.64Q58.04 14.64 58.04 14.43L58.04 14.43L58.04 14.01Q58.04 13.80 58.26 13.80L58.26 13.80L58.32 13.80Q58.75 13.80 58.90 13.49Q59.06 13.18 59.06 12.47L59.06 12.47L59.06 10.36Q59.06 10.32 59.06 10.23L59.06 10.23Q59.06 9.99 59.05 9.86Q59.05 9.73 59.02 9.51Q59.00 9.30 58.94 9.18Q58.87 9.06 58.77 8.94Q58.66 8.81 58.48 8.75Q58.30 8.70 58.05 8.70L58.05 8.70Q57.48 8.70 57.01 9.05Q56.55 9.41 56.23 10.02L56.23 10.02L56.23 12.47Q56.23 13.21 56.46 13.50Q56.68 13.80 57.12 13.80L57.12 13.80L57.23 13.80Q57.44 13.80 57.44 14.01L57.44 14.01L57.44 14.43Q57.44 14.64 57.23 14.64L57.23 14.64L53.43 14.64Q53.22 14.64 53.22 14.43L53.22 14.43L53.22 14.01Q53.22 13.80 53.43 13.80L53.43 13.80L53.53 13.80Q53.86 13.80 54.07 13.49L54.07 13.49Q54.26 13.19 54.26 12.52L54.26 12.52Q54.26 12.50 54.26 12.47L54.26 12.47L54.26 10.36Q54.26 10.32 54.26 10.23L54.26 10.23Q54.26 9.95 54.26 9.81Q54.26 9.68 54.23 9.46Q54.20 9.24 54.14 9.14Q54.08 9.03 53.97 8.91Q53.86 8.79 53.68 8.74Q53.50 8.70 53.25 8.70L53.25 8.70Q52.75 8.70 52.24 9.06Q51.73 9.43 51.55 9.89L51.55 9.89L51.55 12.47Q51.55 13.05 51.79 13.43Q52.04 13.80 52.44 13.80L52.44 13.80L52.48 13.80Q52.68 13.80 52.68 14.01L52.68 14.01L52.68 14.43Q52.68 14.64 52.48 14.64L52.48 14.64L48.54 14.64Q48.33 14.64 48.33 14.43ZM62.94 14.43L62.94 14.43L62.94 14.01Q62.94 13.80 63.15 13.80L63.15 13.80L63.17 13.80Q63.67 13.79 63.94 13.43L63.94 13.43Q64.19 13.07 64.19 12.52L64.19 12.52Q64.19 12.50 64.19 12.47L64.19 12.47L64.19 10.99Q64.19 10.70 64.17 10.49Q64.14 10.29 64.07 10.05Q63.99 9.81 63.81 9.67Q63.64 9.53 63.36 9.50L63.36 9.50Q63.18 9.48 63.20 9.32L63.20 9.32L63.20 8.85Q63.20 8.76 63.24 8.73Q63.29 8.70 63.40 8.66L63.40 8.66Q65.19 8.06 65.97 7.24L65.97 7.24Q66.01 7.21 66.04 7.21L66.04 7.21L66.07 7.21Q66.08 7.21 66.10 7.23L66.10 7.23L66.10 12.47Q66.10 13.06 66.36 13.43Q66.63 13.80 67.13 13.80L67.13 13.80L67.16 13.80Q67.38 13.80 67.38 14.01L67.38 14.01L67.38 14.43Q67.38 14.53 67.31 14.59Q67.24 14.64 67.14 14.64L67.14 14.64L63.18 14.64Q63.08 14.64 63.01 14.59Q62.94 14.53 62.94 14.43ZM64.07 5.33L64.07 5.33Q64.07 4.98 64.42 4.63Q64.76 4.29 65.12 4.29L65.12 4.29Q65.47 4.29 65.82 4.63L65.82 4.63Q66.17 4.99 66.17 5.33L66.17 5.33Q66.17 5.68 65.82 6.04L65.82 6.04Q65.47 6.38 65.12 6.38L65.12 6.38Q64.76 6.38 64.42 6.04Q64.07 5.69 64.07 5.33ZM67.69 10.81L67.69 10.81Q67.76 9.97 68.10 9.31Q68.43 8.65 68.94 8.26Q69.44 7.88 70.02 7.68Q70.61 7.48 71.22 7.48L71.22 7.48L71.48 7.49Q72.66 7.57 73.26 8.11Q73.86 8.64 74.03 9.41L74.03 9.41L74.03 9.47Q74.03 9.61 73.87 9.65L73.87 9.65L72.26 10.08Q72.19 10.10 72.14 10.10L72.14 10.10Q72.08 10.10 72.05 10.08Q72.02 10.06 72.03 10.01L72.03 10.01L72.04 9.86Q72.05 9.79 72.05 9.71L72.05 9.71Q72.05 9.21 71.80 8.93L71.80 8.93Q71.51 8.60 70.90 8.59L70.90 8.59Q70.27 8.59 69.92 9.09Q69.58 9.58 69.51 10.36L69.51 10.36Q69.48 10.72 69.48 10.89L69.48 10.89Q69.48 11.44 69.58 11.90Q69.69 12.37 69.90 12.75Q70.12 13.13 70.50 13.35Q70.88 13.58 71.39 13.58L71.39 13.58Q71.48 13.58 71.65 13.56L71.65 13.56Q72.08 13.52 72.50 13.27Q72.91 13.01 73.21 12.56L73.21 12.56Q73.28 12.46 73.38 12.46L73.38 12.46Q73.45 12.46 73.50 12.50L73.50 12.50L73.87 12.76Q74.03 12.87 73.95 13.04L73.95 13.04Q73.23 14.56 71.40 14.75L71.40 14.75Q71.21 14.77 71.02 14.77L71.02 14.77Q70.25 14.77 69.59 14.43Q68.93 14.10 68.50 13.54L68.50 13.54Q68.07 12.99 67.85 12.27L67.85 12.27Q67.68 11.71 67.68 11.13L67.68 11.13Q67.68 10.97 67.69 10.81Z"></path></g><!----><!----></svg>